{"title":"Ted 2 2015 Movies HDCam x264 AAC New Source with Sample ~ â˜»rDXâ˜»","uid":12069875,"size":740358296,"categoryP":"video","categoryS":"movies","magnet":"?xt=urn:btih:9ddd1243982a123f5b118aa36ed9ec836cfa2ce5&amp;dn=Ted+2+2015+Movies+HDCam+x264+AAC+New+Source+with+Sample+%7E+%E2%98%BBrDX%E2%98%BB&amp;tr=udp%3A%2F%2Ftracker.openbittorrent.com%3A80&amp;tr=udp%3A%2F%2Fopen.demonii.com%3A1337&amp;tr=udp%3A%2F%2Ftracker.coppersurfer.tk%3A6969&amp;tr=udp%3A%2F%2Fexodus.desync.com%3A6969","seeders":3,"leechers":0,"uploader":"basicssom","files":2,"time":1435490801,"description":"----------------------------------------------------------------\nTed 2 2015 English Movies HDCam x264 AAC New Source with Sample ~ â˜»rDXâ˜»\n\nSCREEN SHOTS &amp; POSTER:\n &lt;a href=&quot;\nhttp://imagehosting4u.com/2015/6/Ted2/11.html&quot; rel=&quot;nofollow&quot; target=&quot;_NEW&quot;&gt;\nhttp://imagehosting4u.com/2015/6/Ted2/11.html&lt;/a&gt; &lt;a href=&quot;\nhttp://imagehosting4u.com/2015/6/Ted2/1.html&quot; rel=&quot;nofollow&quot; target=&quot;_NEW&quot;&gt;\nhttp://imagehosting4u.com/2015/6/Ted2/1.html&lt;/a&gt; &lt;a href=&quot;\nhttp://imagehosting4u.com/2015/6/Ted2/2.html&quot; rel=&quot;nofollow&quot; target=&quot;_NEW&quot;&gt;\nhttp://imagehosting4u.com/2015/6/Ted2/2.html&lt;/a&gt; &lt;a href=&quot;\nhttp://imagehosting4u.com/2015/6/Ted2/3.html&quot; rel=&quot;nofollow&quot; target=&quot;_NEW&quot;&gt;\nhttp://imagehosting4u.com/2015/6/Ted2/3.html&lt;/a&gt; &lt;a href=&quot;\nhttp://imagehosting4u.com/2015/6/Ted2/4.html&quot; rel=&quot;nofollow&quot; target=&quot;_NEW&quot;&gt;\nhttp://imagehosting4u.com/2015/6/Ted2/4.html&lt;/a&gt; &lt;a href=&quot;\nhttp://imagehosting4u.com/2015/6/Ted2/5.html&quot; rel=&quot;nofollow&quot; target=&quot;_NEW&quot;&gt;\nhttp://imagehosting4u.com/2015/6/Ted2/5.html&lt;/a&gt; &lt;a href=&quot;\nhttp://imagehosting4u.com/2015/6/Ted2/6.html&quot; rel=&quot;nofollow&quot; target=&quot;_NEW&quot;&gt;\nhttp://imagehosting4u.com/2015/6/Ted2/6.html&lt;/a&gt; &lt;a href=&quot;\nhttp://imagehosting4u.com/2015/6/Ted2/7.html&quot; rel=&quot;nofollow&quot; target=&quot;_NEW&quot;&gt;\nhttp://imagehosting4u.com/2015/6/Ted2/7.html&lt;/a&gt; &lt;a href=&quot;\nhttp://imagehosting4u.com/2015/6/Ted2/8.html&quot; rel=&quot;nofollow&quot; target=&quot;_NEW&quot;&gt;\nhttp://imagehosting4u.com/2015/6/Ted2/8.html&lt;/a&gt; &lt;a href=&quot;\nhttp://imagehosting4u.com/2015/6/Ted2/9.html&quot; rel=&quot;nofollow&quot; target=&quot;_NEW&quot;&gt;\nhttp://imagehosting4u.com/2015/6/Ted2/9.html&lt;/a&gt; &lt;a href=&quot;\nhttp://imagehosting4u.com/2015/6/Ted2/10.html&quot; rel=&quot;nofollow&quot; target=&quot;_NEW&quot;&gt;\nhttp://imagehosting4u.com/2015/6/Ted2/10.html&lt;/a&gt;\n\nFormat                                   : Matroska\nFormat version                           : Version 4 / Version 2\nFile size                                : 699 MiB\nDuration                                 : 1h 47mn\nOverall bit rate                         : 906 Kbps\nMovie name                               : Ted 2 2015 English Movies HDCam x264 AAC New Source ~ rDX ~\n\nVideo\nID                                       : 1\nFormat                                   : AVC\nFormat/Info                              : Advanced Video Codec\nFormat profile                           : &lt;a class=&quot;__cf_email__&quot; href=&quot;/cdn-cgi/l/email-protection&quot; data-cfemail=&quot;85cdece2edc5c9b7abb4&quot;&gt;[email&amp;#160;protected]&lt;/a&gt;&lt;script data-cfhash='f9e31' type=&quot;text/javascript&quot;&gt;\n/* &lt;![CDATA[ */!function(){try{var t=&quot;currentScript&quot;in document?document.currentScript:function(){for(var t=document.getElementsByTagName(&quot;script&quot;),e=t.length;e--;)if(t[e].getAttribute(&quot;data-cfhash&quot;))return t[e]}();if(t&amp;&amp;t.previousSibling){var e,r,n,i,c=t.previousSibling,a=c.getAttribute(&quot;data-cfemail&quot;);if(a){for(e=&quot;&quot;,r=parseInt(a.substr(0,2),16),n=2;a.length-n;n+=2)i=parseInt(a.substr(n,2),16)^r,e+=String.fromCharCode(i);e=document.createTextNode(e),c.parentNode.replaceChild(e,c)}t.parentNode.removeChild(t);}}catch(u){}}()/* ]]&gt; */&lt;/script&gt;\nFormat settings, CABAC                   : Yes\nFormat settings, ReFrames                : 4 frames\nCodec ID                                 : V_MPEG4/ISO/AVC\nDuration                                 : 1h 47mn\nBit rate                                 : 521 Kbps\nWidth                                    : 640 pixels\nHeight                                   : 272 pixels\nDisplay aspect ratio                     : 2.35:1\nFrame rate mode                          : Constant\nFrame rate                               : 14.985 fps\nColor space                              : YUV\nChroma subsampling                       : 4:2:0\nBit depth                                : 8 bits\nScan type                                : Progressive\nBits/(Pixel*Frame)                       : 0.200\nStream size                              : 389 MiB (56%)\nTitle                                    : ~ rDX ~\nWriting library                          : x264\nDefault                                  : Yes\nForced                                   : No\n\nAudio\nID                                       : 2\nFormat                                   : AC-3\nFormat/Info                              : Audio Coding 3\nMode extension                           : CM (complete main)\nFormat settings, Endianness              : Big\nCodec ID                                 : A_AC3\nDuration                                 : 1h 47mn\nBit rate mode                            : Constant\nBit rate                                 : 384 Kbps\nChannel(s)                               : 2 channels\nChannel positions                        : Front: L R\nSampling rate                            : 44.1 KHz\nBit depth                                : 16 bits\nCompression mode                         : Lossy\nStream size                              : 296 MiB (42%)\nTitle                                    : ~ rDX ~\nDefault                                  : Yes\nForced                                   : No","torrent":{"xt":"urn:btih:9ddd1243982a123f5b118aa36ed9ec836cfa2ce5","amp;dn":"Ted+2+2015+Movies+HDCam+x264+AAC+New+Source+with+Sample+%7E+%E2%98%BBrDX%E2%98%BB","amp;tr":["udp%3A%2F%2Ftracker.openbittorrent.com%3A80","udp%3A%2F%2Fopen.demonii.com%3A1337","udp%3A%2F%2Ftracker.coppersurfer.tk%3A6969","udp%3A%2F%2Fexodus.desync.com%3A6969"],"infoHash":"9ddd1243982a123f5b118aa36ed9ec836cfa2ce5","infoHashBuffer":{"type":"Buffer","data":[157,221,18,67,152,42,18,63,91,17,138,163,110,217,236,131,108,250,44,229]},"announce":[],"urlList":[]}}